<svg width="3680" height="666" viewBox="0 0 3680 666" fill="none" xmlns="http://www.w3.org/2000/svg">
<g clip-path="url(#clip0_153_21)">
<path d="M803.728 437V228.584H894.832C910.016 228.584 923.536 230.144 935.392 233.264C947.248 236.176 956.608 241.584 963.472 249.488C970.544 257.184 974.08 268.312 974.08 282.872C974.08 292.44 971.896 300.864 967.528 308.144C963.368 315.424 957.336 321.456 949.432 326.24C959.208 329.568 967.112 334.976 973.144 342.464C979.384 349.952 982.504 360.04 982.504 372.728C982.504 388.328 978.968 400.808 971.896 410.168C965.032 419.528 955.256 426.392 942.568 430.76C929.88 434.92 915.112 437 898.264 437H803.728ZM853.024 310.952H896.392C904.712 310.952 911.16 309.08 915.736 305.336C920.52 301.384 922.912 296.184 922.912 289.736C922.912 283.08 920.52 277.984 915.736 274.448C911.16 270.704 904.712 268.832 896.392 268.832H853.024V310.952ZM853.024 396.128H898.576C909.184 396.128 917.088 394.048 922.288 389.888C927.696 385.52 930.4 379.696 930.4 372.416C930.4 365.136 927.696 359.416 922.288 355.256C917.088 351.096 909.184 349.016 898.576 349.016H853.024V396.128ZM1056.03 437C1043.35 437 1033.26 435.96 1025.77 433.88C1018.28 431.592 1012.87 427.328 1009.55 421.088C1006.43 414.64 1004.87 405.384 1004.87 393.32V228.584H1052.29V380.84C1052.29 388.12 1053.75 392.904 1056.66 395.192C1059.57 397.272 1064.98 398.312 1072.88 398.312H1086.3V437H1056.03ZM1156.64 440.744C1142.91 440.744 1132.1 438.248 1124.19 433.256C1116.5 428.056 1110.98 420.568 1107.66 410.792C1104.54 401.016 1102.98 389.16 1102.98 375.224V282.248H1150.4V368.672C1150.4 382.816 1152.48 392.28 1156.64 397.064C1161.01 401.64 1167.04 403.928 1174.74 403.928C1184.1 403.928 1190.86 400.808 1195.02 394.568C1199.38 388.328 1201.57 378.032 1201.57 363.68V282.248H1249.3V437H1208.12L1201.57 415.16C1196.99 422.856 1191.27 429.096 1184.41 433.88C1177.75 438.456 1168.5 440.744 1156.64 440.744ZM1357.66 440.744C1341.02 440.744 1326.26 437.52 1313.36 431.072C1300.67 424.416 1290.69 414.952 1283.41 402.68C1276.34 390.408 1272.8 375.744 1272.8 358.688C1272.8 342.256 1276.54 328.008 1284.03 315.944C1291.73 303.88 1301.82 294.52 1314.3 287.864C1326.98 281.208 1340.82 277.88 1355.79 277.88C1372.85 277.88 1387.41 281.936 1399.47 290.048C1411.74 297.952 1421 308.976 1427.24 323.12C1433.48 337.056 1436.08 353.176 1435.04 371.48H1320.54C1321.37 382.296 1325.32 390.408 1332.39 395.816C1339.67 401.224 1347.68 403.928 1356.42 403.928C1363.7 403.928 1369.94 402.888 1375.14 400.808C1380.54 398.52 1384.7 395.712 1387.62 392.384L1425.37 406.112C1417.26 417.968 1407.06 426.704 1394.79 432.32C1382.73 437.936 1370.35 440.744 1357.66 440.744ZM1320.54 343.4H1391.05C1390.84 333.416 1387.41 325.928 1380.75 320.936C1374.1 315.736 1366.19 313.136 1357.04 313.136C1348.1 313.136 1340.09 315.528 1333.02 320.312C1326.15 325.096 1321.99 332.792 1320.54 343.4ZM1455.76 437V228.584H1546.86C1562.05 228.584 1575.57 230.144 1587.42 233.264C1599.28 236.176 1608.64 241.584 1615.5 249.488C1622.58 257.184 1626.11 268.312 1626.11 282.872C1626.11 292.44 1623.93 300.864 1619.56 308.144C1615.4 315.424 1609.37 321.456 1601.46 326.24C1611.24 329.568 1619.14 334.976 1625.18 342.464C1631.42 349.952 1634.54 360.04 1634.54 372.728C1634.54 388.328 1631 400.808 1623.93 410.168C1617.06 419.528 1607.29 426.392 1594.6 430.76C1581.91 434.92 1567.14 437 1550.3 437H1455.76ZM1505.06 310.952H1548.42C1556.74 310.952 1563.19 309.08 1567.77 305.336C1572.55 301.384 1574.94 296.184 1574.94 289.736C1574.94 283.08 1572.55 277.984 1567.77 274.448C1563.19 270.704 1556.74 268.832 1548.42 268.832H1505.06V310.952ZM1505.06 396.128H1550.61C1561.22 396.128 1569.12 394.048 1574.32 389.888C1579.73 385.52 1582.43 379.696 1582.43 372.416C1582.43 365.136 1579.73 359.416 1574.32 355.256C1569.12 351.096 1561.22 349.016 1550.61 349.016H1505.06V396.128ZM1710.56 440.744C1696.83 440.744 1686.02 438.248 1678.11 433.256C1670.42 428.056 1664.9 420.568 1661.58 410.792C1658.46 401.016 1656.9 389.16 1656.9 375.224V282.248H1704.32V368.672C1704.32 382.816 1706.4 392.28 1710.56 397.064C1714.93 401.64 1720.96 403.928 1728.66 403.928C1738.02 403.928 1744.78 400.808 1748.94 394.568C1753.3 388.328 1755.49 378.032 1755.49 363.68V282.248H1803.22V437H1762.04L1755.49 415.16C1750.91 422.856 1745.19 429.096 1738.33 433.88C1731.67 438.456 1722.42 440.744 1710.56 440.744ZM1880.07 256.664C1872.38 256.664 1865.72 253.96 1860.11 248.552C1854.7 242.936 1851.99 236.28 1851.99 228.584C1851.99 220.68 1854.7 214.024 1860.11 208.616C1865.72 203.208 1872.38 200.504 1880.07 200.504C1887.98 200.504 1894.63 203.208 1900.04 208.616C1905.45 214.024 1908.15 220.68 1908.15 228.584C1908.15 236.28 1905.45 242.936 1900.04 248.552C1894.63 253.96 1887.98 256.664 1880.07 256.664ZM1856.05 437V318.44H1826.72V282.248H1903.79V437H1856.05ZM1984.42 437C1971.73 437 1961.64 435.96 1954.15 433.88C1946.66 431.592 1941.26 427.328 1937.93 421.088C1934.81 414.64 1933.25 405.384 1933.25 393.32V228.584H1980.67V380.84C1980.67 388.12 1982.13 392.904 1985.04 395.192C1987.95 397.272 1993.36 398.312 2001.26 398.312H2014.68V437H1984.42ZM2091.57 440.744C2078.26 440.744 2066.41 437.416 2056.01 430.76C2045.81 424.104 2037.81 414.64 2031.98 402.368C2026.16 389.888 2023.25 375.224 2023.25 358.376C2023.25 341.528 2026.16 327.176 2031.98 315.32C2037.81 303.256 2045.81 294 2056.01 287.552C2066.41 281.104 2078.26 277.88 2091.57 277.88C2100.1 277.88 2108.84 280.064 2117.78 284.432C2126.73 288.592 2133.69 294.936 2138.69 303.464V228.584H2186.11V376.472C2186.11 384.168 2186.42 393.32 2187.05 403.928C2187.88 414.536 2189.33 425.56 2191.41 437H2146.17L2139.93 416.096C2133.49 425.04 2125.89 431.384 2117.16 435.128C2108.63 438.872 2100.1 440.744 2091.57 440.744ZM2106.86 403.928C2116.01 403.928 2123.92 400.496 2130.57 393.632C2137.44 386.768 2140.87 375.328 2140.87 359.312C2140.87 343.504 2137.44 332.168 2130.57 325.304C2123.92 318.232 2116.01 314.696 2106.86 314.696C2097.5 314.696 2089.39 318.44 2082.53 325.928C2075.87 333.416 2072.54 344.232 2072.54 358.376C2072.54 372.728 2075.87 383.96 2082.53 392.072C2089.39 399.976 2097.5 403.928 2106.86 403.928Z" fill="#DFE2FC"/>
<path d="M2363.54 437L2311.12 228.584H2343.26L2383.82 400.808L2421.88 228.584H2456.2L2494.26 400.808L2534.82 228.584H2566.96L2514.86 437H2479.29L2439.04 264.776L2398.79 437H2363.54ZM2648.83 440.744C2639.89 440.744 2631.05 439.184 2622.31 436.064C2613.57 432.944 2605.57 428.16 2598.29 421.712C2591.21 415.056 2585.49 406.632 2581.13 396.44C2576.76 386.248 2574.57 374.184 2574.57 360.248C2574.57 346.312 2576.76 334.248 2581.13 324.056C2585.49 313.864 2591.21 305.544 2598.29 299.096C2605.57 292.44 2613.57 287.552 2622.31 284.432C2631.05 281.312 2639.89 279.752 2648.83 279.752C2657.77 279.752 2666.61 281.312 2675.35 284.432C2684.29 287.552 2692.3 292.44 2699.37 299.096C2706.65 305.544 2712.37 313.864 2716.53 324.056C2720.9 334.248 2723.09 346.312 2723.09 360.248C2723.09 374.184 2720.9 386.248 2716.53 396.44C2712.37 406.632 2706.65 415.056 2699.37 421.712C2692.3 428.16 2684.29 432.944 2675.35 436.064C2666.61 439.184 2657.77 440.744 2648.83 440.744ZM2648.83 417.656C2656.32 417.656 2663.6 415.68 2670.67 411.728C2677.74 407.568 2683.57 401.328 2688.14 393.008C2692.72 384.48 2695.01 373.56 2695.01 360.248C2695.01 346.936 2692.72 336.12 2688.14 327.8C2683.57 319.272 2677.74 313.032 2670.67 309.08C2663.6 304.92 2656.32 302.84 2648.83 302.84C2641.55 302.84 2634.27 304.92 2626.99 309.08C2619.92 313.032 2614.09 319.272 2609.52 327.8C2604.94 336.12 2602.65 346.936 2602.65 360.248C2602.65 373.56 2604.94 384.48 2609.52 393.008C2614.09 401.328 2619.92 407.568 2626.99 411.728C2634.27 415.68 2641.55 417.656 2648.83 417.656ZM2756.71 437V282.248H2775.74L2784.16 310.952C2789.57 301.592 2796.85 294.104 2806 288.488C2815.36 282.664 2826.49 279.752 2839.39 279.752V306.896C2837.93 306.896 2836.37 306.896 2834.71 306.896C2833.25 306.896 2831.8 307 2830.34 307.208C2812.66 308.664 2800.28 314.8 2793.21 325.616C2786.35 336.432 2782.92 351.408 2782.92 370.544V437H2756.71ZM2862.74 437V228.584H2888.95V351.824L2951.35 282.248H2982.86L2924.51 346.208L2990.66 437H2958.52L2907.04 365.552L2888.95 385.208V437H2862.74ZM3068.42 440.744C3059.48 440.744 3050.64 439.392 3041.9 436.688C3033.37 433.776 3025.68 429.512 3018.81 423.896C3012.16 418.072 3007.06 410.792 3003.52 402.056L3028.8 392.696C3031.08 401.848 3036.08 408.504 3043.77 412.664C3051.68 416.616 3059.89 418.592 3068.42 418.592C3074.66 418.592 3080.48 417.656 3085.89 415.784C3091.51 413.912 3096.08 411.208 3099.62 407.672C3103.16 404.136 3104.92 400.08 3104.92 395.504C3104.92 386.976 3101.49 380.944 3094.63 377.408C3087.97 373.872 3079.96 371.168 3070.6 369.296L3049.08 364.928C3041.59 363.264 3034.62 360.976 3028.17 358.064C3021.72 354.944 3016.52 350.576 3012.57 344.96C3008.62 339.344 3006.64 331.856 3006.64 322.496C3006.64 313.136 3009.56 305.336 3015.38 299.096C3021.2 292.648 3028.59 287.76 3037.53 284.432C3046.68 281.104 3056.25 279.44 3066.24 279.44C3078.51 279.44 3090.05 282.04 3100.87 287.24C3111.89 292.232 3119.69 300.136 3124.27 310.952L3099.62 320C3096.92 313.76 3092.13 309.184 3085.27 306.272C3078.61 303.152 3071.64 301.592 3064.36 301.592C3056.46 301.592 3049.28 303.36 3042.84 306.896C3036.39 310.432 3033.16 315.528 3033.16 322.184C3033.16 328.84 3035.87 333.728 3041.28 336.848C3046.89 339.76 3053.76 342.048 3061.87 343.712L3082.15 347.768C3090.47 349.432 3098.37 351.824 3105.86 354.944C3113.35 358.064 3119.48 362.744 3124.27 368.984C3129.05 375.016 3131.44 383.544 3131.44 394.568C3131.44 404.344 3128.43 412.664 3122.4 419.528C3116.36 426.392 3108.56 431.696 3099 435.44C3089.43 438.976 3079.24 440.744 3068.42 440.744ZM3162.55 437V228.584H3188.76V305.648C3193.13 298.368 3199.26 292.232 3207.17 287.24C3215.07 282.248 3225.57 279.752 3238.68 279.752C3257.4 279.752 3270.61 285.264 3278.3 296.288C3286 307.104 3289.85 321.352 3289.85 339.032V437H3263.64V346.832C3263.64 338.928 3262.91 331.648 3261.45 324.992C3260 318.128 3256.77 312.616 3251.78 308.456C3247 304.296 3239.61 302.216 3229.63 302.216C3216.94 302.216 3206.96 306.584 3199.68 315.32C3192.4 323.848 3188.76 336.432 3188.76 353.072V437H3162.55ZM3393.79 440.744C3384.85 440.744 3376.01 439.184 3367.27 436.064C3358.54 432.944 3350.53 428.16 3343.25 421.712C3336.18 415.056 3330.46 406.632 3326.09 396.44C3321.72 386.248 3319.54 374.184 3319.54 360.248C3319.54 346.312 3321.72 334.248 3326.09 324.056C3330.46 313.864 3336.18 305.544 3343.25 299.096C3350.53 292.44 3358.54 287.552 3367.27 284.432C3376.01 281.312 3384.85 279.752 3393.79 279.752C3402.74 279.752 3411.58 281.312 3420.31 284.432C3429.26 287.552 3437.26 292.44 3444.34 299.096C3451.62 305.544 3457.34 313.864 3461.5 324.056C3465.86 334.248 3468.05 346.312 3468.05 360.248C3468.05 374.184 3465.86 386.248 3461.5 396.44C3457.34 406.632 3451.62 415.056 3444.34 421.712C3437.26 428.16 3429.26 432.944 3420.31 436.064C3411.58 439.184 3402.74 440.744 3393.79 440.744ZM3393.79 417.656C3401.28 417.656 3408.56 415.68 3415.63 411.728C3422.7 407.568 3428.53 401.328 3433.1 393.008C3437.68 384.48 3439.97 373.56 3439.97 360.248C3439.97 346.936 3437.68 336.12 3433.1 327.8C3428.53 319.272 3422.7 313.032 3415.63 309.08C3408.56 304.92 3401.28 302.84 3393.79 302.84C3386.51 302.84 3379.23 304.92 3371.95 309.08C3364.88 313.032 3359.06 319.272 3354.48 327.8C3349.9 336.12 3347.62 346.936 3347.62 360.248C3347.62 373.56 3349.9 384.48 3354.48 393.008C3359.06 401.328 3364.88 407.568 3371.95 411.728C3379.23 415.68 3386.51 417.656 3393.79 417.656ZM3501.67 487.232V282.248H3520.7L3527.88 306.584C3532.66 298.472 3539.21 292.024 3547.53 287.24C3555.85 282.248 3566.04 279.752 3578.11 279.752C3589.96 279.752 3600.88 282.976 3610.87 289.424C3621.06 295.664 3629.17 304.816 3635.2 316.88C3641.44 328.736 3644.56 343.192 3644.56 360.248C3644.56 377.096 3641.44 391.552 3635.2 403.616C3629.17 415.68 3621.06 424.936 3610.87 431.384C3600.88 437.624 3589.96 440.744 3578.11 440.744C3566.04 440.744 3555.85 438.352 3547.53 433.568C3539.21 428.576 3532.66 421.92 3527.88 413.6V487.232H3501.67ZM3571.24 418.28C3584.56 418.28 3595.16 413.184 3603.07 402.992C3611.18 392.8 3615.24 378.552 3615.24 360.248C3615.24 341.736 3611.18 327.488 3603.07 317.504C3595.16 307.312 3584.56 302.216 3571.24 302.216C3557.93 302.216 3547.22 307.312 3539.11 317.504C3531.2 327.488 3527.25 341.736 3527.25 360.248C3527.25 378.552 3531.2 392.8 3539.11 402.992C3547.22 413.184 3557.93 418.28 3571.24 418.28Z" fill="#DFE2FC"/>
<g clip-path="url(#clip1_153_21)">
<mask id="mask0_153_21" style="mask-type:luminance" maskUnits="userSpaceOnUse" x="-23" y="-102" width="768" height="768">
<path d="M745 282C745 69.9227 573.077 -102 361 -102C148.923 -102 -23 69.9227 -23 282C-23 494.077 148.923 666 361 666C573.077 666 745 494.077 745 282Z" fill="white"/>
</mask>
<g mask="url(#mask0_153_21)">
<path d="M361.356 564.311C517.076 564.311 643.312 437.916 643.312 282C643.312 126.084 517.076 -0.311035 361.356 -0.311035C205.636 -0.311035 79.4004 126.084 79.4004 282C79.4004 437.916 205.636 564.311 361.356 564.311Z" fill="#272A47"/>
<path d="M33.1725 533.369C11.2657 453.194 0.00670695 361.983 0.397534 318.608C85.885 349.557 266.765 374.728 264.791 411.864C262.323 458.286 266.969 554.09 278.945 582.337C288.143 604.028 304.958 657.289 309.23 659.031L309.698 658.974C309.565 659.088 309.409 659.102 309.23 659.031L74.6132 687.909C65.0872 659.991 52.4009 603.742 33.1725 533.369Z" fill="#414566"/>
<path d="M189.89 110.193C257.391 109.363 334.843 179.933 367.636 200.686L328.206 361.395C312.105 381.564 268.043 426.648 258.67 420.187C246.954 412.108 137.466 410.906 60.7711 430.456C-12.9387 449.245 -17.9819 329.462 7.04933 237.646C33.8648 139.286 128.732 110.946 189.89 110.193Z" fill="#4F5379"/>
<path d="M147.232 194.093C163.912 191.829 173.934 205.368 176.86 212.42C176.517 213.316 168.672 224.954 156.11 229.24C134.703 236.546 127.42 225.343 126.072 218.844C124.865 213.023 126.382 196.923 147.232 194.093Z" fill="#31344E"/>
<path d="M139.093 213.622C130.728 217.645 133.333 207.017 136.687 203.146C142.007 197.045 149.248 198.859 148.916 201.31C148.584 203.761 147.46 209.598 139.093 213.622Z" fill="#D1EFFF"/>
<path d="M318.764 296.055C342.332 265.574 306.674 219.152 285.899 199.752C334.478 177.72 362.869 219.018 457.479 177.428C548.602 137.372 609.859 88.418 620.312 154.583C627.027 197.091 378.125 297.567 397.025 316.485C412.409 331.882 643.533 353.905 638.921 394.045C634.31 434.185 404.491 398.862 340.405 388.008C276.319 377.155 289.304 334.157 318.764 296.055Z" fill="#A6DFFF"/>
<path d="M633.834 383.704C635.99 390.024 628.491 386.517 600.636 388.022C570.8 389.633 396.285 359.979 349.457 349.469C311.086 340.857 319.94 330.325 342.271 322.704C364.602 315.084 394.28 291.32 397.316 308.205C399.888 322.516 471.45 331.868 530.608 344.915C583.504 356.581 629.842 372.01 633.834 383.704Z" fill="#87AEC5"/>
<path d="M230.18 562.612L447.775 237.462C422.458 197.484 422.563 143.812 452.3 99.3362C483.603 52.5202 539.681 31.8951 589.527 42.4836L522.227 143.138L590.237 187.373L659.453 86.2852C690.87 126.871 691.816 186.266 660.515 233.082C630.778 277.558 580.799 298.791 533.571 291.584L315.976 616.734C309.715 626.1 298.219 628.695 289.151 622.8L237.009 588.885C226.025 583.42 223.569 570.067 230.18 562.612Z" fill="#D2C69E"/>
<path d="M318.764 296.056C342.332 265.574 306.674 219.153 285.899 199.752C334.478 177.72 362.869 219.018 457.479 177.428C548.602 137.372 609.859 88.418 620.312 154.583C626.18 191.737 457.95 278.199 399.248 303.898C391.908 301.036 383.142 298.355 379.906 295.046L318.764 296.056Z" fill="#A6DFFF"/>
<path d="M394.147 216.081C399.691 211.214 370.891 211.737 368.321 219.3C366.284 225.298 388.602 220.948 394.147 216.081Z" fill="#87AEC5"/>
<path d="M613.021 154.912C609.89 148.493 597.456 150.387 580.918 159.161C560.738 169.869 545.196 182.305 531.98 193.883C517.09 206.928 501.358 225.519 488.657 234.653C477.669 242.553 412.556 290.534 378.778 305.467C363.489 313.645 391.337 313.942 393.041 313.669C408.539 311.187 462.453 280.476 471.359 275.341C480.264 270.207 502.292 252.631 550.222 229.988C598.151 207.345 618.102 165.332 613.021 154.912Z" fill="#87AEC5"/>
</g>
</g>
</g>
<defs>
<clipPath id="clip0_153_21">
<rect width="3680" height="666" fill="white"/>
</clipPath>
<clipPath id="clip1_153_21">
<rect width="768" height="768" fill="white" transform="translate(-23 -102)"/>
</clipPath>
</defs>
</svg>
